%TF.GenerationSoftware,KiCad,Pcbnew,9.0.7*%
%TF.CreationDate,2026-03-23T14:32:35+05:30*%
%TF.ProjectId,devops_sensor_board,6465766f-7073-45f7-9365-6e736f725f62,rev?*%
%TF.SameCoordinates,Original*%
%TF.FileFunction,Copper,L2,Bot*%
%TF.FilePolarity,Positive*%
%FSLAX46Y46*%
G04 Gerber Fmt 4.6, Leading zero omitted, Abs format (unit mm)*
G04 Created by KiCad (PCBNEW 9.0.7) date 2026-03-23 14:32:35*
%MOMM*%
%LPD*%
G01*
G04 APERTURE LIST*
%TA.AperFunction,ComponentPad*%
%ADD10R,1.730000X2.030000*%
%TD*%
%TA.AperFunction,ComponentPad*%
%ADD11O,1.730000X2.030000*%
%TD*%
%TA.AperFunction,ComponentPad*%
%ADD12R,1.700000X1.700000*%
%TD*%
%TA.AperFunction,ComponentPad*%
%ADD13C,1.700000*%
%TD*%
%TA.AperFunction,ViaPad*%
%ADD14C,0.600000*%
%TD*%
%TA.AperFunction,Conductor*%
%ADD15C,0.200000*%
%TD*%
G04 APERTURE END LIST*
D10*
%TO.P,J2,1,Pin_1*%
%TO.N,/3V3*%
X175420000Y-79160000D03*
D11*
%TO.P,J2,2,Pin_2*%
%TO.N,/GND*%
X177960000Y-79160000D03*
%TO.P,J2,3,Pin_3*%
%TO.N,/SDA*%
X180500000Y-79160000D03*
%TO.P,J2,4,Pin_4*%
%TO.N,/SCL*%
X183040000Y-79160000D03*
%TD*%
D12*
%TO.P,J1,1,Pin_1*%
%TO.N,/5V*%
X159000000Y-77225000D03*
D13*
%TO.P,J1,2,Pin_2*%
%TO.N,/GND*%
X159000000Y-79765000D03*
%TD*%
D14*
%TO.N,/GND*%
X171196000Y-94742000D03*
X149352000Y-96520000D03*
X183134000Y-84328000D03*
%TD*%
D15*
%TO.N,/GND*%
X173984000Y-75184000D02*
X177960000Y-79160000D01*
X163581000Y-75184000D02*
X173984000Y-75184000D01*
X159000000Y-79765000D02*
X163581000Y-75184000D01*
%TD*%
%TA.AperFunction,Conductor*%
%TO.N,/GND*%
G36*
X186132539Y-73164185D02*
G01*
X186178294Y-73216989D01*
X186189500Y-73268500D01*
X186189500Y-111643500D01*
X186169815Y-111710539D01*
X186117011Y-111756294D01*
X186065500Y-111767500D01*
X146928500Y-111767500D01*
X146861461Y-111747815D01*
X146815706Y-111695011D01*
X146804500Y-111643500D01*
X146804500Y-79658753D01*
X157650000Y-79658753D01*
X157650000Y-79871246D01*
X157683242Y-80081127D01*
X157683242Y-80081130D01*
X157748904Y-80283217D01*
X157845375Y-80472550D01*
X157884728Y-80526716D01*
X158517037Y-79894408D01*
X158534075Y-79957993D01*
X158599901Y-80072007D01*
X158692993Y-80165099D01*
X158807007Y-80230925D01*
X158870590Y-80247962D01*
X158238282Y-80880269D01*
X158238282Y-80880270D01*
X158292449Y-80919624D01*
X158481782Y-81016095D01*
X158683870Y-81081757D01*
X158893754Y-81115000D01*
X159106246Y-81115000D01*
X159316127Y-81081757D01*
X159316130Y-81081757D01*
X159518217Y-81016095D01*
X159707554Y-80919622D01*
X159761716Y-80880270D01*
X159761717Y-80880270D01*
X159129408Y-80247962D01*
X159192993Y-80230925D01*
X159307007Y-80165099D01*
X159400099Y-80072007D01*
X159465925Y-79957993D01*
X159482962Y-79894408D01*
X160115270Y-80526717D01*
X160115270Y-80526716D01*
X160154622Y-80472554D01*
X160251095Y-80283217D01*
X160316757Y-80081130D01*
X160316757Y-80081127D01*
X160350000Y-79871246D01*
X160350000Y-79658753D01*
X160316757Y-79448872D01*
X160316757Y-79448869D01*
X160251095Y-79246782D01*
X160154624Y-79057449D01*
X160115270Y-79003282D01*
X160115269Y-79003282D01*
X159482962Y-79635590D01*
X159465925Y-79572007D01*
X159400099Y-79457993D01*
X159307007Y-79364901D01*
X159192993Y-79299075D01*
X159129409Y-79282037D01*
X159761716Y-78649728D01*
X159707550Y-78610375D01*
X159513879Y-78511694D01*
X159514396Y-78510678D01*
X159464192Y-78470221D01*
X159442127Y-78403927D01*
X159459406Y-78336228D01*
X159510542Y-78288617D01*
X159566048Y-78275500D01*
X159869750Y-78275500D01*
X159869751Y-78275499D01*
X159884568Y-78272552D01*
X159928229Y-78263868D01*
X159928229Y-78263867D01*
X159928231Y-78263867D01*
X159994552Y-78219552D01*
X160038867Y-78153231D01*
X160042846Y-78133223D01*
X160044433Y-78125247D01*
X174354500Y-78125247D01*
X174354500Y-80194752D01*
X174366131Y-80253229D01*
X174366132Y-80253230D01*
X174410447Y-80319552D01*
X174476769Y-80363867D01*
X174476770Y-80363868D01*
X174535247Y-80375499D01*
X174535250Y-80375500D01*
X174535252Y-80375500D01*
X176304750Y-80375500D01*
X176304751Y-80375499D01*
X176319568Y-80372552D01*
X176363229Y-80363868D01*
X176363229Y-80363867D01*
X176363231Y-80363867D01*
X176429552Y-80319552D01*
X176473867Y-80253231D01*
X176473867Y-80253229D01*
X176473868Y-80253229D01*
X176485499Y-80194752D01*
X176485500Y-80194750D01*
X176485500Y-79939299D01*
X176505185Y-79872260D01*
X176557989Y-79826505D01*
X176627147Y-79816561D01*
X176690703Y-79845586D01*
X176719985Y-79883004D01*
X176792547Y-80025416D01*
X176918838Y-80199240D01*
X177070759Y-80351161D01*
X177244583Y-80477452D01*
X177436024Y-80574996D01*
X177640359Y-80641388D01*
X177709999Y-80652418D01*
X177710000Y-80652418D01*
X177710000Y-79604560D01*
X177763147Y-79635245D01*
X177892857Y-79670000D01*
X178027143Y-79670000D01*
X178156853Y-79635245D01*
X178210000Y-79604560D01*
X178210000Y-80652418D01*
X178279638Y-80641388D01*
X178279641Y-80641388D01*
X178483975Y-80574996D01*
X178675416Y-80477452D01*
X178849240Y-80351161D01*
X179001161Y-80199240D01*
X179127452Y-80025416D01*
X179224997Y-79833973D01*
X179270044Y-79695331D01*
X179309481Y-79637655D01*
X179373839Y-79610456D01*
X179442686Y-79622370D01*
X179494162Y-79669614D01*
X179502536Y-79686194D01*
X179555766Y-79814702D01*
X179672373Y-79989218D01*
X179820781Y-80137626D01*
X179995298Y-80254234D01*
X180065270Y-80283217D01*
X180189205Y-80334553D01*
X180189209Y-80334553D01*
X180189210Y-80334554D01*
X180395054Y-80375500D01*
X180395057Y-80375500D01*
X180604945Y-80375500D01*
X180743433Y-80347952D01*
X180810795Y-80334553D01*
X181004703Y-80254233D01*
X181179216Y-80137628D01*
X181327628Y-79989216D01*
X181444233Y-79814703D01*
X181524553Y-79620795D01*
X181537952Y-79553433D01*
X181565500Y-79414945D01*
X181974499Y-79414945D01*
X182015445Y-79620789D01*
X182015447Y-79620795D01*
X182095765Y-79814701D01*
X182212373Y-79989218D01*
X182360781Y-80137626D01*
X182535298Y-80254234D01*
X182605270Y-80283217D01*
X182729205Y-80334553D01*
X182729209Y-80334553D01*
X182729210Y-80334554D01*
X182935054Y-80375500D01*
X182935057Y-80375500D01*
X183144945Y-80375500D01*
X183283433Y-80347952D01*
X183350795Y-80334553D01*
X183544703Y-80254233D01*
X183719216Y-80137628D01*
X183867628Y-79989216D01*
X183984233Y-79814703D01*
X184064553Y-79620795D01*
X184077952Y-79553433D01*
X184105500Y-79414945D01*
X184105500Y-78905054D01*
X184064554Y-78699210D01*
X184064553Y-78699209D01*
X184064553Y-78699205D01*
X183986462Y-78510678D01*
X183984234Y-78505298D01*
X183867626Y-78330781D01*
X183719218Y-78182373D01*
X183544701Y-78065765D01*
X183350795Y-77985447D01*
X183350789Y-77985445D01*
X183144945Y-77944500D01*
X183144943Y-77944500D01*
X182935057Y-77944500D01*
X182935055Y-77944500D01*
X182729210Y-77985445D01*
X182729204Y-77985447D01*
X182535298Y-78065765D01*
X182360781Y-78182373D01*
X182212373Y-78330781D01*
X182095765Y-78505298D01*
X182015447Y-78699204D01*
X182015445Y-78699210D01*
X181974500Y-78905054D01*
X181974500Y-78905057D01*
X181974500Y-79414943D01*
X181974500Y-79414945D01*
X181974499Y-79414945D01*
X181565500Y-79414945D01*
X181565500Y-78905054D01*
X181524554Y-78699210D01*
X181524553Y-78699209D01*
X181524553Y-78699205D01*
X181446462Y-78510678D01*
X181444234Y-78505298D01*
X181327626Y-78330781D01*
X181179218Y-78182373D01*
X181004701Y-78065765D01*
X180810795Y-77985447D01*
X180810788Y-77985445D01*
X180807666Y-77984824D01*
X180806182Y-77984048D01*
X180804963Y-77983678D01*
X180805033Y-77983446D01*
X180745757Y-77952436D01*
X180711186Y-77891718D01*
X180714929Y-77821949D01*
X180755799Y-77765279D01*
X180784406Y-77748649D01*
X180879179Y-77709394D01*
X181010289Y-77621789D01*
X181121789Y-77510289D01*
X181209394Y-77379179D01*
X181269737Y-77233497D01*
X181300500Y-77078842D01*
X181300500Y-76921158D01*
X181300500Y-76921155D01*
X181300499Y-76921153D01*
X181269738Y-76766510D01*
X181269737Y-76766503D01*
X181269735Y-76766498D01*
X181209397Y-76620827D01*
X181209390Y-76620814D01*
X181121789Y-76489711D01*
X181121786Y-76489707D01*
X181010292Y-76378213D01*
X181010288Y-76378210D01*
X180879185Y-76290609D01*
X180879172Y-76290602D01*
X180733501Y-76230264D01*
X180733489Y-76230261D01*
X180578845Y-76199500D01*
X180578842Y-76199500D01*
X180421158Y-76199500D01*
X180421155Y-76199500D01*
X180266510Y-76230261D01*
X180266498Y-76230264D01*
X180120827Y-76290602D01*
X180120814Y-76290609D01*
X179989711Y-76378210D01*
X179989707Y-76378213D01*
X179878213Y-76489707D01*
X179878210Y-76489711D01*
X179790609Y-76620814D01*
X179790602Y-76620827D01*
X179730264Y-76766498D01*
X179730261Y-76766510D01*
X179699500Y-76921153D01*
X179699500Y-77078846D01*
X179730261Y-77233489D01*
X179730264Y-77233501D01*
X179790602Y-77379172D01*
X179790609Y-77379185D01*
X179878210Y-77510288D01*
X179878213Y-77510292D01*
X179989707Y-77621786D01*
X179989711Y-77621789D01*
X180120814Y-77709390D01*
X180120826Y-77709397D01*
X180206789Y-77745003D01*
X180215584Y-77748646D01*
X180215587Y-77748647D01*
X180269991Y-77792487D01*
X180292056Y-77858781D01*
X180274777Y-77926481D01*
X180223640Y-77974091D01*
X180192335Y-77984824D01*
X180189209Y-77985446D01*
X180189204Y-77985447D01*
X179995298Y-78065765D01*
X179820781Y-78182373D01*
X179672373Y-78330781D01*
X179555766Y-78505297D01*
X179502536Y-78633805D01*
X179458694Y-78688208D01*
X179392400Y-78710272D01*
X179324701Y-78692992D01*
X179277091Y-78641855D01*
X179270044Y-78624668D01*
X179224997Y-78486026D01*
X179127452Y-78294583D01*
X179001161Y-78120759D01*
X178849240Y-77968838D01*
X178675416Y-77842547D01*
X178483975Y-77745003D01*
X178279635Y-77678610D01*
X178279636Y-77678610D01*
X178210000Y-77667581D01*
X178210000Y-78715439D01*
X178156853Y-78684755D01*
X178027143Y-78650000D01*
X177892857Y-78650000D01*
X177763147Y-78684755D01*
X177710000Y-78715439D01*
X177710000Y-77667581D01*
X177640364Y-77678610D01*
X177436024Y-77745003D01*
X177244583Y-77842547D01*
X177070759Y-77968838D01*
X176918838Y-78120759D01*
X176792547Y-78294583D01*
X176719985Y-78436995D01*
X176672010Y-78487791D01*
X176604189Y-78504586D01*
X176538054Y-78482049D01*
X176494603Y-78427334D01*
X176485500Y-78380700D01*
X176485500Y-78125249D01*
X176485499Y-78125247D01*
X176473868Y-78066770D01*
X176473867Y-78066769D01*
X176429552Y-78000447D01*
X176363230Y-77956132D01*
X176363229Y-77956131D01*
X176304752Y-77944500D01*
X176304748Y-77944500D01*
X174535252Y-77944500D01*
X174535247Y-77944500D01*
X174476770Y-77956131D01*
X174476769Y-77956132D01*
X174410447Y-78000447D01*
X174366132Y-78066769D01*
X174366131Y-78066770D01*
X174354500Y-78125247D01*
X160044433Y-78125247D01*
X160050457Y-78094968D01*
X160050457Y-78094967D01*
X160050499Y-78094754D01*
X160050500Y-78094750D01*
X160050500Y-76355249D01*
X160050499Y-76355247D01*
X160038868Y-76296770D01*
X160038867Y-76296769D01*
X159994552Y-76230447D01*
X159928230Y-76186132D01*
X159928229Y-76186131D01*
X159869752Y-76174500D01*
X159869748Y-76174500D01*
X158130252Y-76174500D01*
X158130247Y-76174500D01*
X158071770Y-76186131D01*
X158071769Y-76186132D01*
X158005447Y-76230447D01*
X157961132Y-76296769D01*
X157961131Y-76296770D01*
X157949500Y-76355247D01*
X157949500Y-78094752D01*
X157961131Y-78153229D01*
X157961132Y-78153230D01*
X158005447Y-78219552D01*
X158071769Y-78263867D01*
X158071770Y-78263868D01*
X158130247Y-78275499D01*
X158130250Y-78275500D01*
X158433952Y-78275500D01*
X158500991Y-78295185D01*
X158546746Y-78347989D01*
X158556690Y-78417147D01*
X158527665Y-78480703D01*
X158485735Y-78510938D01*
X158486121Y-78511694D01*
X158292439Y-78610380D01*
X158238282Y-78649727D01*
X158238282Y-78649728D01*
X158870591Y-79282037D01*
X158807007Y-79299075D01*
X158692993Y-79364901D01*
X158599901Y-79457993D01*
X158534075Y-79572007D01*
X158517037Y-79635591D01*
X157884728Y-79003282D01*
X157884727Y-79003282D01*
X157845380Y-79057439D01*
X157748904Y-79246782D01*
X157683242Y-79448869D01*
X157683242Y-79448872D01*
X157650000Y-79658753D01*
X146804500Y-79658753D01*
X146804500Y-73268500D01*
X146824185Y-73201461D01*
X146876989Y-73155706D01*
X146928500Y-73144500D01*
X186065500Y-73144500D01*
X186132539Y-73164185D01*
G37*
%TD.AperFunction*%
%TD*%
M02*
